<?xml version="1.0" encoding="utf-8"?>
<!-- Generator: Adobe Illustrator 27.8.1, SVG Export Plug-In . SVG Version: 6.00 Build 0)  -->
<svg version="1.1" id="Capa_1" xmlns="http://www.w3.org/2000/svg" xmlns:xlink="http://www.w3.org/1999/xlink" x="0px" y="0px"
	 viewBox="0 0 100 100" style="enable-background:new 0 0 100 100;" xml:space="preserve">
<style type="text/css">
	.st0{fill:none;stroke:#4A1162;stroke-width:6;stroke-linecap:round;stroke-linejoin:round;}
	.st1{fill:none;stroke:#F3731C;stroke-width:6;stroke-linecap:round;stroke-linejoin:round;}
	.st2{fill:none;stroke:#4A1162;stroke-width:6.5;stroke-linecap:round;stroke-linejoin:round;}
	.st3{fill:none;stroke:#F37300;stroke-width:6;stroke-linecap:round;stroke-linejoin:round;}
</style>
<g>
	<path class="st0" d="M59.5,45.2c2.4-1.7,3.9-4.1,3.9-6.8s-1.5-5-3.9-6.8"/>
	<path class="st0" d="M40.4,31.7c-2.4,1.7-3.9,4.1-3.9,6.8s1.5,5,3.9,6.8"/>
	<path class="st1" d="M63.4,51.9c0-4.2-3.4-7.7-7.7-7.7c-2.3,0-4.3,1-5.8,2.7c-1.4-1.6-3.5-2.7-5.8-2.7c-4.2,0-7.7,3.4-7.7,7.7
		c0,3.6,2.5,6.6,5.8,7.4v13.9h15.4V59.3C61,58.5,63.5,55.5,63.4,51.9L63.4,51.9z"/>
	<path class="st1" d="M63.4,25c0,4.2-3.4,7.7-7.7,7.7c-2.3,0-4.3-1-5.8-2.7c-1.4,1.6-3.5,2.7-5.8,2.7c-4.2,0-7.7-3.4-7.7-7.7
		c0-3.6,2.5-6.6,5.8-7.4V3.7h15.4v13.9C61,18.5,63.5,21.5,63.4,25L63.4,25z"/>
	<path class="st2" d="M96.3,73.2H3.7V11.4c0-4.2,3.4-7.7,7.7-7.7h77.2c4.2,0,7.7,3.4,7.7,7.7L96.3,73.2L96.3,73.2z"/>
	<path class="st2" d="M88.6,96.3H11.4c-4.2,0-7.7-3.4-7.7-7.7V73.2h92.6v15.4C96.3,92.9,92.9,96.3,88.6,96.3L88.6,96.3z"/>
	<line class="st0" x1="15.2" y1="84.8" x2="38.3" y2="84.8"/>
	<path class="st3" d="M84.8,84.8L84.8,84.8L84.8,84.8z"/>
	<path class="st3" d="M73.2,84.8L73.2,84.8L73.2,84.8z"/>
	<path class="st3" d="M61.7,84.8L61.7,84.8L61.7,84.8z"/>
	<line class="st0" x1="15.2" y1="15.2" x2="24.8" y2="15.2"/>
	<line class="st0" x1="15.2" y1="26.8" x2="24.8" y2="26.8"/>
</g>
</svg>
