<?xml version="1.0" encoding="utf-8"?>
<!-- Generator: Adobe Illustrator 27.8.1, SVG Export Plug-In . SVG Version: 6.00 Build 0)  -->
<svg version="1.1" id="Capa_1" xmlns="http://www.w3.org/2000/svg" xmlns:xlink="http://www.w3.org/1999/xlink" x="0px" y="0px"
	 viewBox="0 0 100 100" style="enable-background:new 0 0 100 100;" xml:space="preserve">
<style type="text/css">
	.st0{fill:#4A1162;}
</style>
<path class="st0" d="M93.8,76.4c-3.9-5.9-9.2-10.4-15.4-13.2l-2.2-8.9c-0.5-2,0.1-4.2,1.7-5.7c5.6-5.5,8.8-13.1,8.8-21
	C86.6,12.3,74.3,0,59.1,0H29.7v8.6c0,3.9,1.4,7.7,3.9,10.6v8.5l-5.3,8.9H16.9V68c0,1.6-1.3,2.8-2.8,2.8H8.7c-4.8,0-8.7,3.9-8.7,8.7
	s3.9,8.7,8.7,8.7h12c1.6,0,2.8,1.3,2.8,2.8v8.9h5.9V91c0-4.8-3.9-8.7-8.7-8.7h-12c-1.6,0-2.8-1.3-2.8-2.8s1.3-2.8,2.8-2.8H14
	c4.8,0,8.7-3.9,8.7-8.7V55.8h6.1l1.8,4.5h16.6l1.2,13.2L40.1,100H100v-2.9C100,89.7,97.9,82.5,93.8,76.4L93.8,76.4L93.8,76.4z
	 M39.5,29.4V21h10.3c1.9,0,3.5,1.5,3.5,3.5v4.3l-6.1,8.4l-6.9-1.7l-3-2.4L39.5,29.4L39.5,29.4z M57.9,32.4l2.7-0.6
	c1.9-0.5,3.4,0.6,4.1,1.7c0.3,0.5,1.2,2.3-0.1,4.1L56,43.2c-0.8-1.5-1.8-2.8-3.2-3.8L57.9,32.4L57.9,32.4z M70.4,55.7l1.9,7.7
	L54,69.8L53,58c1.4-2.4,3.5-5.7,4-8.4l8.8-5.9l4.6,6.3C70,51.9,70,53.8,70.4,55.7L70.4,55.7L70.4,55.7z M35.6,5.9h23.5
	c11.9,0,21.7,9.7,21.7,21.7c0,6.2-2.6,12.6-7.2,16.9l-3.5-4.8c1.4-2.9,1.3-6.3-0.5-9.2c-2.1-3.5-6.4-5.4-10.5-4.3v-1.6
	c0-5.1-4.2-9.3-9.3-9.3H37.9c-1.5-1.9-2.3-4.1-2.3-6.5L35.6,5.9L35.6,5.9z M22.7,42.5h5.5c1,2.3,1.2,5,0.6,7.4h-6.1V42.5z
	 M34.6,54.4L34,52.9c1.6-4.3,1.4-9.2-0.6-13.3l0.9-1.5l3.4,2.7l10.1,2.5c2.1,0.5,3.6,2.4,3.6,4.5c0.2,1.5-2,4.7-3,6.5L34.6,54.4
	L34.6,54.4L34.6,54.4z M48.1,94.1L53.8,76l21.9-7.7C85.9,72.9,92.9,82.9,94,94.1H48.1L48.1,94.1z"/>
</svg>
