<?xml version="1.0" encoding="utf-8"?>
<!-- Generator: Adobe Illustrator 27.8.1, SVG Export Plug-In . SVG Version: 6.00 Build 0)  -->
<svg version="1.1" id="Capa_1" xmlns="http://www.w3.org/2000/svg" xmlns:xlink="http://www.w3.org/1999/xlink" x="0px" y="0px"
	 viewBox="0 0 100 100" style="enable-background:new 0 0 100 100;" xml:space="preserve">
<style type="text/css">
	.st0{fill:#4A1162;}
	.st1{fill:#F37300;}
</style>
<g>
	<path class="st0" d="M94.1,62.8v-6.9h-9.8c-2.9,0-5.6,0.9-7.8,2.5V0H5.9v100h61.8c1.4,0,3.4,0.1,5.9-1.1
		c7.5,3.6,16.4-2.1,18.8-11.7c1.3-5.1,0.6-10.6-2.4-14.6C92.6,70.1,94.1,66.6,94.1,62.8L94.1,62.8L94.1,62.8z M84.3,61.8h3.9
		c-0.1,0.4,0.6,4.4-3,7.2c-2.8-1.3-5.9-1.2-8.7-0.1C76.9,64.8,80.2,61.8,84.3,61.8z M11.8,5.9h58.8v62.9c-2.3-0.9-4.7-1.1-7-0.5
		c-7.7,2-10.9,10.9-8.8,18.9c0.7,2.6,1.8,4.9,3.3,6.9H11.8V5.9L11.8,5.9z M86.6,85.8c-1.2,4.8-4.9,8.3-8.4,8.3
		c-2.3,0-3.5-1.4-4.7-2.2c-1.4,0.9-2.1,1.7-3.4,2c-3.9,1-8.3-2.8-9.7-8.2S61.1,75,65,74c4.3-1.1,7.2,3.3,8.5,4.4l2.1-2.1
		c2-2,4.3-2.8,6.4-2.3C85.9,75,88,80.4,86.6,85.8L86.6,85.8L86.6,85.8z"/>
	<path class="st1" d="M17.7,82.3h5.9v5.9h-5.9V82.3z"/>
	<path class="st0" d="M29.4,82.3h17.7v5.9H29.4V82.3z"/>
	<path class="st1" d="M17.7,70.6h5.9v5.9h-5.9V70.6z"/>
	<path class="st0" d="M29.4,70.6h17.7v5.9H29.4V70.6z"/>
	<path class="st1" d="M17.7,58.8h5.9v5.9h-5.9V58.8z"/>
	<path class="st0" d="M29.4,58.8h17.7v5.9H29.4V58.8z"/>
	<path class="st1" d="M17.7,47.1h5.9V53h-5.9V47.1z"/>
	<path class="st0" d="M29.4,47.1h35.3V53H29.4V47.1z"/>
	<path class="st1" d="M17.7,35.3h5.9v5.9h-5.9V35.3z"/>
	<path class="st0" d="M29.4,35.3h35.3v5.9H29.4V35.3z"/>
	<path class="st1" d="M64.7,11.8h-47v17.7h47.1V11.8H64.7z M58.8,23.5H23.5v-5.9h35.3V23.5z"/>
</g>
</svg>
