<?xml version="1.0" encoding="utf-8"?>
<!-- Generator: Adobe Illustrator 27.8.1, SVG Export Plug-In . SVG Version: 6.00 Build 0)  -->
<svg version="1.1" id="Capa_1" xmlns="http://www.w3.org/2000/svg" xmlns:xlink="http://www.w3.org/1999/xlink" x="0px" y="0px"
	 viewBox="0 0 100 100" style="enable-background:new 0 0 100 100;" xml:space="preserve">
<style type="text/css">
	.st0{fill:none;stroke:#4A1162;stroke-width:6.5;stroke-linecap:round;stroke-linejoin:round;}
	.st1{fill:none;stroke:#4A1162;stroke-width:6;stroke-linecap:round;stroke-linejoin:round;}
	.st2{fill:none;stroke:#F37300;stroke-width:6;stroke-linecap:round;stroke-linejoin:round;}
	.st3{fill:#F37300;}
</style>
<g>
	<path class="st0" d="M96.3,73.2H3.7V11.4c0-4.2,3.4-7.7,7.7-7.7h77.2c4.2,0,7.7,3.4,7.7,7.7L96.3,73.2L96.3,73.2z"/>
	<path class="st0" d="M88.6,96.3H11.4c-4.2,0-7.7-3.4-7.7-7.7V73.2h92.6v15.4C96.3,92.8,92.9,96.3,88.6,96.3L88.6,96.3z"/>
	<line class="st1" x1="15.2" y1="84.8" x2="38.3" y2="84.8"/>
	<path class="st2" d="M84.8,84.8L84.8,84.8L84.8,84.8z"/>
	<path class="st2" d="M73.2,84.8L73.2,84.8L73.2,84.8z"/>
	<path class="st2" d="M61.7,84.8L61.7,84.8L61.7,84.8z"/>
	<path class="st3" d="M71.9,18.4c-2.7-3.7-5.6-5.4-9-5.4c-2.2,0-4.4,0.7-6.4,1.4h-0.1c-2.2,0.7-4.3,1.4-6.6,1.4s-4.5-0.7-6.6-1.5
		c-2.1-0.7-4.3-1.4-6.5-1.4c-3.4,0-6.2,1.8-8.8,5.5c-4,5.9-1.7,12.2,0.1,17.2c0.8,2.3,1.6,4.4,1.6,6c0,8.3,1.7,22.2,8.3,22.2
		c4.5,0,5.8-5.2,7.1-9.8c1.3-4.8,2.4-8.3,5.1-8.3c2.3,0,3.2,2.2,4.4,7.5c1.1,4.6,2.3,10.4,7.8,10.4c7.7,0,8.3-17,8.3-22.2
		c0-1.5,0.8-3.6,1.6-5.9v-0.1C73.9,30.6,76.1,24.1,71.9,18.4L71.9,18.4z M68.1,34.3L68.1,34.3c-1,2.7-1.8,5.1-1.8,7.4
		c0,4.9-0.5,9.7-1.4,13.1c-1.1,4-2.3,4.8-2.7,4.8c-1.7,0-2.5-1.5-3.8-7.2c-1-4.5-2.4-10.8-8.4-10.8s-7.8,6.6-9.1,11.4
		c-0.7,2.7-1.8,6.7-3,6.7c-0.2,0-1.4-0.8-2.5-4.8c-1-3.5-1.6-8.4-1.6-13.2c0-2.3-0.9-4.8-1.9-7.5c-1.7-4.6-3.4-9.3-0.6-13.4
		c2.2-3.2,3.9-3.7,5.3-3.7c1.5,0,3.3,0.6,5.2,1.2c2.3,0.8,5,1.7,8,1.7s5.6-0.9,7.9-1.6h0.1c1.8-0.6,3.6-1.2,5.1-1.2
		c1.4,0,3.2,0.4,5.7,3.7C71.4,24.8,69.7,29.6,68.1,34.3L68.1,34.3z"/>
	<line class="st1" x1="15.2" y1="15.2" x2="24.8" y2="15.2"/>
	<line class="st1" x1="15.2" y1="26.8" x2="24.8" y2="26.8"/>
</g>
</svg>
