<?xml version="1.0" encoding="utf-8"?>
<!-- Generator: Adobe Illustrator 27.8.1, SVG Export Plug-In . SVG Version: 6.00 Build 0)  -->
<svg version="1.1" id="Capa_1" xmlns="http://www.w3.org/2000/svg" xmlns:xlink="http://www.w3.org/1999/xlink" x="0px" y="0px"
	 viewBox="0 0 100 100" style="enable-background:new 0 0 100 100;" xml:space="preserve">
<style type="text/css">
	.st0{fill:#501B5F;}
	.st1{fill:#4A1162;}
	.st2{fill:#F37300;}
</style>
<g>
	<path class="st0" d="M91,58.5L91,58.5c-2.1,2.7-5.1,6.3-9,9.8C85.3,65.4,88.3,62.1,91,58.5z M81.8,68.4c0,0,0.1-0.1,0.2-0.1
		C81.9,68.3,81.9,68.4,81.8,68.4z M80.2,69.9c0.5-0.5,1.1-1,1.6-1.4C81.3,68.9,80.8,69.4,80.2,69.9L80.2,69.9L80.2,69.9z M86.6,72
		c4.6-4.2,8.6-9,11.8-14C95.6,62.5,91.6,67.4,86.6,72z M80.2,41.2l-5.5,5.5L80.2,41.2L80.2,41.2L80.2,41.2z M75.5,37.6
		c-3.9-2.7-8.4-5.1-13.5-6.7C66.7,32.4,71.2,34.7,75.5,37.6L75.5,37.6L75.5,37.6z M63.5,25.2c7.6,2.4,14.9,6.7,21.3,12.2
		C78.8,32.2,71.6,27.7,63.5,25.2z"/>
	<path class="st1" d="M100,34.4C84.2,19.8,70.1,12.2,50,12.1l0,0c-20.1,0-34.2,7.7-50,22.3l3.9,4.4C14.3,29.5,27.2,18,50,18
		s35.7,11.5,46.1,20.8L100,34.4z"/>
	<path class="st2" d="M50,35c-11.3,0-20.6,9.2-20.6,20.6S38.7,76.1,50,76.1s20.6-9.2,20.6-20.6S61.4,35,50,35L50,35z M50,70.3
		c-8.1,0-14.7-6.6-14.7-14.7S41.9,40.8,50,40.8s14.7,6.6,14.7,14.7S58.1,70.3,50,70.3z"/>
	<path class="st0" d="M50,46.7c-4.9,0-8.8,4-8.8,8.8s4,8.8,8.8,8.8s8.8-4,8.8-8.8S54.9,46.7,50,46.7L50,46.7z M50,58.5
		c-1.6,0-3-1.3-3-3s1.3-3,3-3s3,1.3,3,3S51.6,58.5,50,58.5z"/>
	<path class="st0" d="M80.2,41.2L80.2,41.2c4.8,4.1,8.4,8.3,10.8,11.4l0,0C87.8,48.4,84.2,44.5,80.2,41.2z M98.9,53.7
		c-3.5-5.6-8-10.8-13-15.4C91.4,43.3,95.8,48.8,98.9,53.7z M75.5,73.4c-3.2,2.2-6.4,4-9.8,5.4l0,0C69.3,77.4,72.6,75.5,75.5,73.4
		L75.5,73.4L75.5,73.4z M68.9,83.9c6.3-2.7,11.9-6.6,16.7-10.9C80.5,77.4,74.8,81.2,68.9,83.9C68.9,83.8,68.9,83.8,68.9,83.9
		L68.9,83.9z M56.4,29.6L56.4,29.6C54.3,29.2,52.1,29,50,29C52.2,29,54.3,29.2,56.4,29.6L56.4,29.6z M63,25.1
		c-4.2-1.3-8.5-2-12.8-1.9C54.7,23.2,59,23.9,63,25.1z"/>
	<path class="st1" d="M98.9,53.7c-3.1-4.8-7.5-10.4-13-15.4c-0.3-0.3-0.7-0.6-1-0.9c-6.4-5.5-13.7-9.8-21.3-12.2
		c-0.1,0-0.3-0.1-0.4-0.1c-4-1.2-8.3-1.9-12.8-1.9c-0.1,0-0.2,0-0.3,0C30.5,22.7,10.3,37.9,0,55.5c7.6,13,26.1,32.5,50,32.3h0.3
		c3.2,0,6.4-0.4,9.4-1c1.3-0.3,2.5-0.6,3.7-1c1.9-0.6,3.8-1.3,5.6-2.1l0,0c5.9-2.6,11.6-6.4,16.7-10.8c0.3-0.3,0.7-0.6,1-0.9
		c4.9-4.6,9-9.5,11.8-14c0.1-0.2,0.3-0.4,0.4-0.6c0.4-0.6,0.8-1.2,1.1-1.9C99.6,54.9,99.3,54.3,98.9,53.7L98.9,53.7z M79,55.5
		l-3.8,3.8l4.1,4.1l5-5H91c-3.2,4.2-6.8,8.1-10.8,11.4l-5.5-5.5H70v5.9h2.3l3.2,3.2c-3,2.1-6.2,3.9-9.8,5.4l0,0
		c-1.2,0.5-2.4,1-3.6,1.3l-1-3.8l-1.8,0.5l-3.9,1l0.8,3.4l0.1,0.4c-2.1,0.4-4.3,0.5-6.4,0.5c-2.1,0-4.2-0.1-6.4-0.5l1-3.8l-5.7-1.4
		l-1,3.8c-4.6-1.5-9.2-3.8-13.4-6.7l3.2-3.2H30v-5.9h-4.7l-5.5,5.5c-3.9-3.3-7.6-7.2-10.8-11.4h6.7l5,5l4.1-4.1L21,55.5l3.8-3.8
		l-4.1-4.1l-5,5H9c2.3-3.1,6-7.3,10.8-11.4l5.5,5.5H30v-5.9h-2.3l-3.2-3.2c3.9-2.7,8.4-5.1,13.5-6.7l1,3.8l5.7-1.4l-1-3.8
		c2.1-0.3,4.2-0.5,6.4-0.5c2.1,0,4.2,0.1,6.4,0.5l0,0l-1,3.8l5.7,1.4l1-3.8c5,1.6,9.5,4,13.5,6.7l0,0l-3.2,3.2H70v5.9h4.7l5.5-5.5
		l0,0c4,3.3,7.6,7.1,10.8,11.4h-6.7l-5-5l-4.1,4.1L79,55.5L79,55.5z"/>
</g>
</svg>
