<?xml version="1.0" encoding="utf-8"?>
<!-- Generator: Adobe Illustrator 27.8.1, SVG Export Plug-In . SVG Version: 6.00 Build 0)  -->
<svg version="1.1" id="Capa_1" xmlns="http://www.w3.org/2000/svg" xmlns:xlink="http://www.w3.org/1999/xlink" x="0px" y="0px"
	 viewBox="0 0 100 100" style="enable-background:new 0 0 100 100;" xml:space="preserve">
<style type="text/css">
	.st0{fill:none;stroke:#F37300;stroke-width:4.02;stroke-linejoin:round;}
	.st1{fill:none;stroke:#F37300;stroke-width:4.02;stroke-linecap:round;stroke-linejoin:round;}
	.st2{fill:none;stroke:#4A1162;stroke-width:6.03;stroke-linecap:round;stroke-linejoin:round;}
</style>
<g>
	<g>
		<polyline class="st0" points="44.5,32.5 58.9,32.5 66.6,24.2 76.4,24.2 		"/>
		<polyline class="st0" points="44.5,67.5 58.9,67.5 66.6,75.8 76.4,75.8 		"/>
		<line class="st0" x1="51.6" y1="50" x2="81.7" y2="50"/>
		<line class="st1" x1="29" y1="50" x2="41.3" y2="50"/>
		<line class="st1" x1="20" y1="41.6" x2="29.5" y2="41.6"/>
		<line class="st1" x1="20" y1="7.5" x2="29.5" y2="7.5"/>
		<line class="st1" x1="20.2" y1="92.5" x2="29.5" y2="92.5"/>
		<line class="st1" x1="20.2" y1="58.4" x2="29.5" y2="58.4"/>
	</g>
	<g>
		<circle class="st2" cx="81.7" cy="24.2" r="5.3"/>
		<circle class="st2" cx="81.7" cy="75.8" r="5.3"/>
		<circle class="st2" cx="87" cy="50" r="5.3"/>
		<path class="st2" d="M36.4,24.5l7.7-7.7C47.9,13,50.2,8.3,51,3.5h-9.9c-0.7,2.4-2,4.7-3.9,6.5l-7.7,7.7"/>
		<path class="st2" d="M51,96.5c-0.8-4.9-3.2-9.6-6.9-13.4L21.7,60.8c-6-6-6-15.7,0-21.7l7.8-7.8l-6.8-6.8l-7.8,7.8
			c-9.7,9.7-9.7,25.5,0,35.3L37.3,90c1.9,1.9,3.2,4.2,3.9,6.5H51z"/>
		<path class="st2" d="M22.6,75.5L15,83.1c-3.8,3.9-6.2,8.6-7,13.4h9.9c0.7-2.4,2-4.7,3.9-6.5l7.5-7.5"/>
		<path class="st2" d="M36.5,75.3l7.6-7.6c9.7-9.7,9.7-25.5,0-35.3L21.7,10c-1.9-1.9-3.2-4.2-3.9-6.5H8c0.8,4.9,3.2,9.6,6.9,13.4
			l22.4,22.4c6,6,6,15.7,0,21.7l-7.7,7.7"/>
	</g>
</g>
</svg>
