<?xml version="1.0" encoding="utf-8"?>
<!-- Generator: Adobe Illustrator 27.8.1, SVG Export Plug-In . SVG Version: 6.00 Build 0)  -->
<svg version="1.1" id="Capa_1" xmlns="http://www.w3.org/2000/svg" xmlns:xlink="http://www.w3.org/1999/xlink" x="0px" y="0px"
	 viewBox="0 0 100 100" style="enable-background:new 0 0 100 100;" xml:space="preserve">
<style type="text/css">
	.st0{fill:#4A1162;}
	.st1{fill:#F37300;}
</style>
<g>
	<path class="st0" d="M94.7,66.3c-1.2-7.4-4.2-14.4-8.8-20.4c-5.4-7.2-13.3-12.2-21.6-15.4v14l-1.9-1.9c-2.4-2.4-3.7-5.5-3.7-8.8V0
		H41.2v33.8c0,3.3-1.3,6.5-3.7,8.8l-1.9,1.9v-14c-8.4,3.2-16.2,8.2-21.6,15.4c-4.6,5.9-7.6,13-8.8,20.4L0,100h18.5
		c9.5,0,17.2-7.7,17.2-17.2V69.4L50,55.1l14.3,14.3v13.4c0,9.5,7.7,17.2,17.2,17.2H100L94.7,66.3L94.7,66.3z M29.8,82.8
		c0,6.2-5.1,11.3-11.3,11.3H6.9l4.2-26.9c1-6.4,3.7-12.5,7.6-17.7c3-3.9,6.8-7.2,11.1-9.8L29.8,82.8L29.8,82.8z M50,46.8L35.7,61.1
		v-8.3l6-6c3.5-3.5,5.4-8.1,5.4-13V5.9H53v28c0,4.9,1.9,9.5,5.4,13l6,6v8.3L50,46.8L50,46.8z M81.5,94.1c-6.2,0-11.3-5.1-11.3-11.3
		v-43c4.3,2.5,8.1,5.8,11.1,9.8c4,5.1,6.6,11.3,7.6,17.7l4.2,26.9L81.5,94.1L81.5,94.1z"/>
	<path class="st1" d="M14.7,82.4h5.9v5.9h-5.9C14.7,88.3,14.7,82.4,14.7,82.4z"/>
	<path class="st1" d="M20.6,70.6h5.9v5.9h-5.9V70.6z"/>
	<path class="st1" d="M17.6,58.8h5.9v5.9h-5.9V58.8z"/>
	<path class="st1" d="M79.4,82.4h5.9v5.9h-5.9V82.4z"/>
	<path class="st1" d="M73.6,70.6h5.9v5.9h-5.9V70.6z"/>
	<path class="st1" d="M76.5,58.8h5.9v5.9h-5.9V58.8z"/>
</g>
</svg>
