<?xml version="1.0" encoding="utf-8"?>
<!-- Generator: Adobe Illustrator 27.8.1, SVG Export Plug-In . SVG Version: 6.00 Build 0)  -->
<svg version="1.1" id="Capa_1" xmlns="http://www.w3.org/2000/svg" xmlns:xlink="http://www.w3.org/1999/xlink" x="0px" y="0px"
	 viewBox="0 0 100 100" style="enable-background:new 0 0 100 100;" xml:space="preserve">
<style type="text/css">
	.st0{fill:#F37300;}
	.st1{fill:#4A1162;}
</style>
<g>
	<path class="st0" d="M89.9,64.9c-1.2-1.6-2.7-2.9-4.5-3.9c1.4-1.9,2.2-4.2,2.2-6.6c0-2.7-1-5.3-2.7-7.3c-1.4-1.6-3.1-2.7-5.1-3.4
		c-0.7-4.8-4.4-8.7-9.2-9.5c-0.9-5.3-5.5-9.3-11.1-9.3c-3.8,0-7.1,1.9-9.1,4.7c-2-2.8-5.4-4.7-9.1-4.7c-5.5,0-10.1,4-11.1,9.3
		c-4.8,0.8-8.5,4.7-9.2,9.5c-2,0.6-3.7,1.8-5.1,3.4c-1.8,2-2.7,4.6-2.7,7.3c0,2.4,0.8,4.7,2.2,6.6c-1.7,1-3.2,2.3-4.5,3.9
		c-1.9,2.6-3,5.6-3,8.8c0,8.1,6.6,14.6,14.6,14.6c0.4,0,0.8,0,1.2,0c1.4,5.3,5.8,9.4,11.2,10.5c1,0.2,2,0.3,3,0.3
		c5.3,0,10-2.8,12.5-7.1c2.6,4.2,7.2,7.1,12.5,7.1c1,0,2-0.1,3-0.3c5.4-1.1,9.7-5.2,11.2-10.5c0.4,0,0.8,0,1.2,0
		c8.1,0,14.6-6.6,14.6-14.6C92.9,70.5,91.9,67.4,89.9,64.9L89.9,64.9L89.9,64.9z M12.2,73.7c0-4.6,3.1-8.7,7.5-10l0,0
		c1-0.3,2-0.4,3-0.4c1.6,0,3.1,0.3,4.5,1c-0.1,0.6-0.1,1.2-0.1,1.8c0.1,2.6,1.3,5,3.2,6.8c0.4,0.4,0.9,0.5,1.4,0.5
		c0.6,0,1.1-0.2,1.6-0.7c0.8-0.9,0.7-2.2-0.1-3c-1.1-1-1.8-2.4-1.8-3.9s0.5-2.9,1.5-4c1.1-1.2,2.8-1.8,5.2-1.8
		c1.2,0,2.1-0.9,2.1-2.1v-9.3c0-1.2-0.9-2.1-2.1-2.1l0,0c-1.2,0-2.1,0.9-2.1,2.1v7.3c-2.6,0.3-4.7,1.4-6.2,3.1
		c-0.4,0.4-0.7,0.9-1,1.4c-1.8-0.8-3.8-1.2-5.9-1.2c-1,0-2,0.1-3,0.3c-1.4-1.3-2.1-3.1-2.1-5c0-3.4,2.5-6.4,5.9-6.9
		c1-0.2,1.8-1,1.8-2.1v-0.1c0-3.9,3.2-7,7-7c1.2,0,2.1-0.9,2.1-2.1c0-3.9,3.2-7,7-7s7,3.1,7,7v48.4c0,1.5-0.3,3-0.9,4.3
		c-1.6,3.6-5.3,6.2-9.5,6.2c-1,0-2.1-0.2-3.1-0.5c-3.8-1.2-6.6-4.4-7.2-8.4l0,0c-0.1-0.5-0.1-1-0.1-1.6c0-1.7,0.4-3.4,1.2-4.9
		c0.5-1,0.2-2.3-0.9-2.8c-1-0.5-2.3-0.2-2.8,0.9c-1.1,2-1.6,4.2-1.7,6.5c-0.2,0-0.4,0-0.7,0C16.9,84.1,12.3,79.4,12.2,73.7
		L12.2,73.7L12.2,73.7z M78.3,84.1c-0.2,0-0.4,0-0.7,0c0-2.3-0.6-4.5-1.7-6.5c-0.5-1-1.8-1.4-2.8-0.9s-1.4,1.8-0.9,2.8
		c0.8,1.5,1.2,3.2,1.2,4.9c0,0.5,0,1.1-0.1,1.6l0,0c-0.6,4-3.5,7.2-7.2,8.4c-1,0.3-2,0.5-3.1,0.5c-4.2,0-7.9-2.5-9.5-6.2
		c-0.6-1.3-0.9-2.7-0.9-4.3V36c0-3.8,3.2-7,7-7s7,3.2,7,7c0,1.2,0.9,2.1,2.1,2.1c3.9,0,7,3.2,7,7v0.1c0,1,0.8,1.9,1.8,2.1
		c3.4,0.5,5.9,3.5,5.9,6.9c0,1.9-0.8,3.7-2.1,5c-1-0.2-2-0.3-3-0.3c-2,0-4.1,0.4-5.9,1.2c-0.3-0.5-0.7-0.9-1-1.4
		c-1.5-1.7-3.6-2.7-6.2-3.1v-7.3c0-1.2-0.9-2.1-2.1-2.1c-1.2,0-2.1,0.9-2.1,2.1v9.3c0,1.2,0.9,2.1,2.1,2.1c2.4,0,4.1,0.6,5.2,1.8
		c2.1,2.3,1.9,5.9-0.4,8c-0.9,0.8-0.9,2.1-0.1,3c0.4,0.5,1,0.7,1.6,0.7c0.5,0,1-0.2,1.4-0.5c2.5-2.2,3.5-5.5,3.1-8.6
		c1.4-0.7,2.9-1,4.5-1c1.2,0,2.3,0.2,3.5,0.6c4.1,1.5,7,5.4,7,9.8C88.7,79.4,84.1,84.1,78.3,84.1L78.3,84.1L78.3,84.1z"/>
	<path class="st1" d="M96.8,4.4L96.3,4c-2.9-2.9-7.8-2.9-10.7,0l-9.4,9.5c-0.4,0.4-0.6,0.9-0.6,1.5s0.2,1.1,0.6,1.5l2.6,2.6
		L59.4,38.6c-0.8,0.8-0.8,2.2,0,3c0.8,0.8,2.2,0.8,3,0L81.8,22l2.6,2.6c0.4,0.4,1,0.6,1.5,0.6s1.1-0.2,1.5-0.6l9.4-9.5
		C99.8,12.2,99.8,7.4,96.8,4.4L96.8,4.4z M93.8,12.2l-7.9,8L80.7,15c0,0,7.9-8,7.9-8c1.3-1.3,3.5-1.3,4.7,0l0.5,0.5
		C95.1,8.7,95.2,10.9,93.8,12.2L93.8,12.2L93.8,12.2z"/>
	<path class="st1" d="M38.5,41.5c0.8,0.8,2.2,0.8,3,0c0.8-0.8,0.8-2.2,0-3l-17-17.1l8-4.2h10.4c1.2,0,2.1-0.9,2.1-2.1
		S44.1,13,42.9,13H32c-0.3,0-0.7,0.1-1,0.2l-9.8,5L4.6,1.6c-0.8-0.8-2.2-0.8-3,0s-0.8,2.2,0,3C1.6,4.5,38.5,41.5,38.5,41.5
		L38.5,41.5z"/>
</g>
</svg>
