<?xml version="1.0" encoding="utf-8"?>
<!-- Generator: Adobe Illustrator 27.8.1, SVG Export Plug-In . SVG Version: 6.00 Build 0)  -->
<svg version="1.1" id="Capa_1" xmlns="http://www.w3.org/2000/svg" xmlns:xlink="http://www.w3.org/1999/xlink" x="0px" y="0px"
	 viewBox="0 0 100 100" style="enable-background:new 0 0 100 100;" xml:space="preserve">
<style type="text/css">
	.st0{fill:#F37300;}
	.st1{fill:none;stroke:#4A1162;stroke-width:6;stroke-miterlimit:10;}
</style>
<g>
	<path class="st0" d="M77.4,33.7c-4,0-7.2,3.2-7.2,7.2v14.7c0,3.2-2.6,5.8-5.8,5.8H35.6c-3.2,0-5.8-2.6-5.8-5.8V40.9
		c0-4-3.2-7.2-7.2-7.2s-7.2,3.2-7.2,7.2v39.5c0,4,3.3,7.4,7.3,7.3c1.5,0,3-0.5,4.2-1.4l14.7-10.7c2.4-1.7,5.3-2.8,8.5-2.8
		s6.1,1,8.5,2.8l14.7,10.7c1.2,0.8,2.6,1.4,4.2,1.4c4,0,7.3-3.3,7.3-7.3V40.9C84.6,36.9,81.4,33.7,77.4,33.7L77.4,33.7z"/>
	<path class="st1" d="M21.2,3.7v23.1c0,4.8,3.9,8.6,8.7,8.6h40.4c4.8,0,8.7-3.9,8.7-8.6V3.7H64.4c-4.8,0-8.7,3.9-8.7,8.6v5.8
		c0,3.2-2.6,5.8-5.8,5.8s-5.8-2.6-5.8-5.8v-5.8c0-4.8-3.9-8.6-8.7-8.6C35.4,3.7,21.2,3.7,21.2,3.7z"/>
	<path class="st1" d="M29.8,44c0,3.2,2.6,5.8,5.8,5.8h28.8c3.2,0,5.8-2.6,5.8-5.8"/>
	<polyline class="st1" points="29.8,84.1 29.8,96.3 70.2,96.3 70.2,84.1 	"/>
	<path class="st1" d="M77.4,33.7c-4,0-7.2,3.2-7.2,7.2v14.7c0,3.2-2.6,5.8-5.8,5.8H35.6c-3.2,0-5.8-2.6-5.8-5.8V40.9
		c0-4-3.2-7.2-7.2-7.2s-7.2,3.2-7.2,7.2v39.5c0,4,3.3,7.4,7.3,7.3c1.5,0,3-0.5,4.2-1.4l14.7-10.7c2.4-1.7,5.3-2.8,8.5-2.8
		s6.1,1,8.5,2.8l14.7,10.7c1.2,0.8,2.6,1.4,4.2,1.4c4,0,7.3-3.3,7.3-7.3V40.9C84.6,36.9,81.4,33.7,77.4,33.7L77.4,33.7z"/>
</g>
</svg>
